<?xml version="1.0" standalone="no"?>
<!DOCTYPE svg PUBLIC "-//W3C//DTD SVG 20010904//EN"
 "http://www.w3.org/TR/2001/REC-SVG-20010904/DTD/svg10.dtd">
<svg version="1.0" xmlns="http://www.w3.org/2000/svg"
 width="239.000000pt" height="227.000000pt" viewBox="0 0 239.000000 227.000000"
 preserveAspectRatio="xMidYMid meet">

<g transform="translate(0.000000,227.000000) scale(0.100000,-0.100000)"
fill="#000000" stroke="none">
<path d="M600 1125 l0 -635 635 0 635 0 0 635 0 635 -635 0 -635 0 0 -635z
m1210 0 l0 -565 -570 0 -570 0 0 565 0 565 570 0 570 0 0 -565z"/>
<path d="M1575 1400 c-10 -11 -25 -43 -35 -72 -14 -45 -21 -54 -43 -56 -34 -4
-35 -22 -2 -22 17 0 25 -5 25 -17 0 -30 -40 -256 -51 -290 -11 -34 -29 -45
-29 -18 0 18 -36 20 -43 3 -7 -20 12 -48 32 -48 52 0 95 90 127 268 l19 102
32 0 c18 0 33 5 33 10 0 6 -14 10 -31 10 l-32 0 6 52 c4 28 13 58 21 67 13 13
16 11 26 -13 11 -29 27 -30 44 -4 26 42 -63 67 -99 28z"/>
<path d="M760 1266 c0 -8 7 -16 15 -20 12 -4 15 -24 15 -86 0 -97 17 -146 54
-156 37 -9 77 3 109 34 l27 26 0 -33 0 -34 52 7 c64 9 68 12 40 32 -20 14 -22
23 -22 130 l0 114 -55 0 c-40 0 -55 -4 -55 -14 0 -8 7 -16 15 -20 11 -4 15
-22 15 -71 0 -73 -18 -120 -50 -128 -40 -10 -50 16 -50 129 l0 104 -55 0 c-40
0 -55 -4 -55 -14z"/>
<path d="M1172 1273 c-18 -7 -54 -81 -43 -87 5 -3 18 10 30 29 11 19 25 35 31
35 16 0 11 -46 -23 -190 -27 -114 -36 -137 -55 -145 -12 -5 -22 -15 -22 -22 0
-20 136 -18 143 1 4 10 -2 16 -21 18 -30 3 -31 16 -11 91 l10 38 26 -21 c42
-33 89 -27 133 18 91 91 68 242 -38 242 -24 0 -49 -8 -65 -20 l-26 -20 -6 20
c-6 19 -33 25 -63 13z m182 -45 c19 -27 20 -57 4 -109 -15 -51 -42 -79 -77
-79 -45 0 -61 49 -40 124 21 75 82 109 113 64z"/>
<path d="M1641 1051 c-15 -27 9 -56 37 -47 24 8 29 35 10 54 -17 17 -36 15
-47 -7z"/>
</g>
</svg>
